<?xml version="1.0" standalone="no"?><!DOCTYPE svg PUBLIC "-//W3C//DTD SVG 1.1//EN" "http://www.w3.org/Graphics/SVG/1.1/DTD/svg11.dtd"><svg t="1530067773994" class="icon" style="" viewBox="0 0 1024 1024" version="1.1" xmlns="http://www.w3.org/2000/svg" p-id="9701" xmlns:xlink="http://www.w3.org/1999/xlink" width="200" height="200"><defs><style type="text/css"></style></defs><path d="M79.179294 129.927529h706.379294c43.369412 0 78.848 35.267765 78.848 78.336v20.449883H239.104a149.232941 149.232941 0 0 0-105.261176 43.670588 148.058353 148.058353 0 0 0-44.092236 105.200941v347.166118h-10.571294C35.84 724.751059 0.331294 689.513412 0.331294 646.415059V208.263529c0-43.068235 35.478588-78.336 78.848-78.336z" fill="#515151" p-id="9702"></path><path d="M239.104 299.248941h706.379294c43.369412 0 78.848 35.267765 78.848 78.336v28.491294H160.256v-28.491294c0-43.098353 35.478588-78.336 78.848-78.336zM1024.331294 476.762353v338.944c0 43.098353-35.508706 78.336-78.848 78.336H239.104c-43.369412 0-78.848-35.267765-78.848-78.336V476.762353H1024.331294z" fill="#515151" p-id="9703"></path></svg>